<?xml version="1.0" standalone="no"?>
<!DOCTYPE svg PUBLIC "-//W3C//DTD SVG 20010904//EN"
 "http://www.w3.org/TR/2001/REC-SVG-20010904/DTD/svg10.dtd">
<svg version="1.0" xmlns="http://www.w3.org/2000/svg"
 width="261.000000pt" height="261.000000pt" viewBox="0 0 261.000000 261.000000"
 preserveAspectRatio="xMidYMid meet">
<metadata>
Created by potrace 1.11, written by Peter Selinger 2001-2013
</metadata>
<g transform="translate(0.000000,261.000000) scale(0.100000,-0.100000)"
fill="#000000" stroke="none">
<path d="M1235 2191 c-21 -70 -46 -151 -55 -181 -10 -30 -29 -93 -43 -140 -93
-309 -84 -290 -120 -290 -33 0 -105 15 -113 23 -3 2 41 156 97 341 56 185 99
339 96 342 -9 10 -108 -24 -192 -64 -244 -119 -445 -363 -505 -616 -12 -48
-27 -86 -37 -94 -16 -11 -18 -35 -18 -239 0 -150 3 -231 11 -241 9 -13 35 -18
101 -21 6 -1 25 -31 43 -68 110 -237 373 -559 510 -626 60 -29 67 -31 175 -48
65 -11 226 -7 285 5 14 3 39 9 55 12 62 13 138 62 220 141 110 105 290 356
360 501 29 61 45 82 60 83 11 1 32 2 47 3 51 2 52 9 53 252 0 212 -1 226 -20
247 -11 12 -20 24 -21 27 -24 217 -194 477 -406 619 l-62 42 -17 -53 c-10 -29
-50 -163 -90 -298 -40 -135 -78 -252 -85 -260 -9 -11 -35 -16 -85 -18 -70 -3
-71 -2 -66 20 4 13 45 151 92 308 48 157 89 294 92 305 16 64 17 62 -28 73
-24 6 -44 10 -45 9 -2 -3 -50 -152 -74 -232 -10 -33 -48 -157 -85 -275 -60
-193 -181 -602 -190 -640 -18 -85 -91 -319 -103 -333 -13 -15 -25 -16 -71 -11
-31 4 -66 10 -78 15 -13 5 -23 7 -23 4 0 -6 -99 30 -140 51 -51 26 -116 98
-133 147 -11 33 -14 98 -15 277 0 129 2 238 4 241 2 3 34 0 71 -7 37 -7 93
-16 123 -19 30 -3 64 -8 75 -10 11 -2 58 -7 105 -10 47 -4 93 -9 102 -11 18
-5 26 19 158 451 29 94 68 217 86 274 18 58 31 107 28 110 -3 3 -25 6 -48 6
l-44 1 -37 -125z m763 -874 c3 -258 0 -269 -71 -338 -73 -69 -247 -143 -388
-164 -24 -4 -46 -8 -50 -11 -5 -3 -193 -16 -229 -16 -36 0 -48 5 -53 22 -3 11
21 116 52 233 32 116 68 253 81 302 13 50 30 97 39 106 11 12 41 19 96 22 44
3 114 11 155 18 41 6 85 12 97 14 11 2 29 5 40 9 10 3 36 8 58 11 22 3 56 9
75 14 19 4 49 7 65 7 l30 -1 3 -228z"/>
</g>
</svg>
