<svg id="Layer_1" xmlns="http://www.w3.org/2000/svg" viewBox="0 0 64 64"><style>.logo-fill{fill-rule:evenodd;clip-rule:evenodd;fill:#32103c}</style><path class="logo-fill" d="M60.6 24.3c-.6-5.2-3-10.3-7.9-15.6-1.9-2-4.1-3.7-6.5-5.1L40.9 21c-.6 1.8-.3 1.5-2.2 1.7-.5.1-1 .1-1.6.2-2.1.1-1.8.3-1.2-1.9l5.9-19.4c-.9-.3-1.8-.6-2.7-.8l-8.4 27.1c-1 3.7-2.9 10.7-4.2 15-1.2 4.2-.9 4-4.4 3.5-6.2-.9-11-3.8-11-9.2v-12c0-2.1.1-1.4 2.6-1 4.1.7 8.6 1.2 12.7 1.5L34.3.1c-.6-.1-1.2-.1-1.9-.1h-1L25 21c-.6 1.8-.4 1.6-2 1.4-.4 0-.9-.1-1.4-.2-2-.3-1.8-.4-1.2-2.5L26.2.6c-5.5 1.2-10.4 4.1-14.1 8-5 5.2-7.3 10.4-7.9 15.6-.7.2-1.2.8-1.2 1.5v12.7c0 .8.7 1.5 1.5 1.5h2.3c.1.4.3.8.5 1.1C9.5 46.4 18.8 60.1 25 61.9c2.2.6 4.7 1 7.4 1h.1c2.7 0 5.2-.4 7.4-1 6.2-1.8 15.4-15.5 17.7-20.9.2-.4.3-.8.5-1.1h2.3c.8 0 1.5-.7 1.5-1.5V25.7c-.1-.7-.7-1.3-1.3-1.4zm-6.9 12.4c0 6-10.7 9.4-19 10-7 .5-5.9.4-4.2-6.2l2.9-10.9c1.2-4.3.4-3.5 4.7-3.8 3.4-.2 8.6-1.3 12.9-2.1 2.4-.4 2.6-.6 2.6 1.5v11.5z"/></svg>