<svg id="Isolation_Mode" xmlns="http://www.w3.org/2000/svg" viewBox="0 0 49.0647392 52.5114784"><style>.st0{fill:#372159}</style><title>trax</title><path class="st0" d="M48.079 20.29c-.493-4.309-2.449-8.618-6.6-12.995a23.497 23.497 0 0 0-5.457-4.268l-4.355 14.49c-.474 1.535-.288 1.282-1.837 1.452-.428.048-.856.092-1.308.127-1.794.146-1.583.254-1.033-1.524l4.888-16.206a23.204 23.204 0 0 0-2.257-.68l-7.01 22.636c-.862 3.126-2.44 8.921-3.48 12.532-1.002 3.48-.745 3.363-3.699 2.916-5.165-.782-9.163-3.132-9.163-7.661V21.085c0-1.777.12-1.202 2.152-.843 3.51.6 7.051 1.007 10.606 1.218L26.15.064a23.66 23.66 0 0 0-1.576-.063V0h-.085c-.263.001-.523.014-.784.023l-5.311 17.561c-.468 1.51-.346 1.323-1.692 1.192a26.389 26.389 0 0 1-1.18-.14c-1.707-.24-1.524-.293-.964-2.1L19.372.583A23.37 23.37 0 0 0 7.586 7.295C3.434 11.672 1.479 15.98.986 20.29c-.57.11-.984.608-.986 1.19v10.583c.002.668.543 1.21 1.211 1.211h1.945c.124.32.251.64.382.96 1.853 4.524 9.56 15.928 14.74 17.439 2.013.569 4.097.851 6.189.84h.13a22.323 22.323 0 0 0 6.189-.84c5.18-1.512 12.887-12.915 14.74-17.44.131-.32.259-.64.382-.959h1.945a1.215 1.215 0 0 0 1.212-1.211V21.479a1.216 1.216 0 0 0-.986-1.19zm-5.782 10.315c0 5.002-8.944 7.854-15.838 8.36-5.854.43-4.96.367-3.474-5.173l2.44-9.103c.961-3.587.324-2.953 3.934-3.198 2.838-.193 7.189-1.117 10.786-1.752 2.03-.358 2.152-.495 2.152 1.277v9.59z"/></svg>