<?xml version="1.0" encoding="utf-8"?>
<!-- Generator: Adobe Illustrator 22.0.1, SVG Export Plug-In . SVG Version: 6.00 Build 0)  -->
<svg version="1.1" id="Layer_1" xmlns="http://www.w3.org/2000/svg" xmlns:xlink="http://www.w3.org/1999/xlink" x="0px" y="0px"
	 viewBox="0 0 500 560" style="enable-background:new 0 0 500 560;" xml:space="preserve">
<style type="text/css">
	.st0{fill:#FFFFFF;stroke:#FC5E00;stroke-width:4;stroke-miterlimit:10;}
</style>
<polygon class="st0" points="29.7,63.2 6,39.9 38.9,35.2 53.7,5.5 68.2,35.4 101.1,40.2 77.2,63.3 82.7,96.1 53.4,80.5 23.9,95.9 
	"/>
<polygon class="st0" points="129.7,63.2 106,39.9 138.9,35.2 153.7,5.5 168.2,35.4 201.1,40.2 177.2,63.3 182.7,96.1 153.4,80.5 
	123.9,95.9 "/>
<polygon class="st0" points="229.7,63.2 206,39.9 238.9,35.2 253.7,5.5 268.2,35.4 301.1,40.2 277.2,63.3 282.7,96.1 253.4,80.5 
	223.9,95.9 "/>
<polygon class="st0" points="329.7,63.2 306,39.9 338.9,35.2 353.7,5.5 368.2,35.4 401.1,40.2 377.2,63.3 382.7,96.1 353.4,80.5 
	323.9,95.9 "/>
<polygon class="st0" points="429.7,63.2 406,39.9 438.9,35.2 453.7,5.5 468.2,35.4 501.1,40.2 477.2,63.3 482.7,96.1 453.4,80.5 
	423.9,95.9 "/>
</svg>
